<?xml version="1.0" encoding="UTF-8" standalone="no"?>
<!DOCTYPE svg PUBLIC "-//W3C//DTD SVG 1.1//EN" "http://www.w3.org/Graphics/SVG/1.1/DTD/svg11.dtd">
<svg width="100%" height="100%" viewBox="0 0 96 96" version="1.1" xmlns="http://www.w3.org/2000/svg" xmlns:xlink="http://www.w3.org/1999/xlink" xml:space="preserve" style="fill-rule:evenodd;clip-rule:evenodd;stroke-linejoin:round;stroke-miterlimit:1.41421;">
    <g id="path6455" transform="matrix(1,0,0,1,268,-635.291)">
        <path d="M-268,700.156L-268,666.426C-268,639.183 -264.112,635.291 -236.897,635.291L-203.103,635.291C-175.888,635.291 -172,639.183 -172,666.426L-172,700.156C-172,727.399 -175.888,731.291 -203.103,731.291L-236.897,731.291C-264.112,731.291 -268,727.399 -268,700.156Z" style="fill:rgb(28,138,219);fill-rule:nonzero;"/>
    </g>
    <g id="path4786" transform="matrix(0.154054,0.020226,-0.0185526,0.141308,-6.7861,-12.1723)">
        <path d="M191.346,226.746L0.218,417.874C8.585,616.583 112.424,728.772 272.942,789.595C345.36,717.495 417.615,645.243 489.58,572.242L191.346,226.746Z" style="fill:url(#_Linear1);"/>
    </g>
    <g id="path4147" transform="matrix(0.148893,0,0,0.148893,-10.8162,-47.8038)">
        <path d="M400.001,418.027C331.451,451.504 254.366,478.662 191.347,479.108C230.053,718.476 252.262,810.98 400.001,886.697C547.739,810.98 569.949,718.476 608.655,479.108C545.635,478.662 468.55,451.504 400.001,418.027L400.001,418.027Z" style="fill:white;"/>
    </g>
    <g id="path4183" transform="matrix(0.148893,0,0,0.148893,-10.8162,-10.2289)">
        <path d="M400,165.664L400,400L575.928,400C587.724,352.332 597.51,295.647 608.652,226.742C545.633,226.297 468.55,199.141 400,165.664ZM400,400L224.07,400C253.252,517.926 294.79,580.413 400,634.334L400,400Z" style="fill:black;fill-opacity:0.133333;"/>
    </g>
    <defs>
        <linearGradient id="_Linear1" x1="0" y1="0" x2="1" y2="0" gradientUnits="userSpaceOnUse" gradientTransform="matrix(-263.201,226.274,-226.274,-263.201,291.142,440.49)"><stop offset="0%" style="stop-color:black;stop-opacity:0.419608"/><stop offset="100%" style="stop-color:black;stop-opacity:0"/></linearGradient>
    </defs>
</svg>
